<?xml version="1.0" encoding="utf-8"?>
<!-- Generator: Adobe Illustrator 25.2.3, SVG Export Plug-In . SVG Version: 6.00 Build 0)  -->
<svg version="1.1" id="Layer_1" xmlns="http://www.w3.org/2000/svg" xmlns:xlink="http://www.w3.org/1999/xlink" x="0px" y="0px"
	 viewBox="0 0 320 512" style="enable-background:new 0 0 320 512;" xml:space="preserve">
<style type="text/css">
	.st0{fill:#511F00;}
</style>
<path class="st0" d="M310.6,361.4c12.5,12.5,12.5,32.8,0,45.2c-6.2,6.2-14.4,9.4-22.6,9.4s-16.4-3.1-22.6-9.4L160,301.3L54.6,406.6
	c-6.2,6.3-14.4,9.4-22.6,9.4s-16.4-3.1-22.6-9.4c-12.5-12.5-12.5-32.8,0-45.2L114.8,256L9.4,150.6c-12.5-12.5-12.5-32.8,0-45.2
	s32.8-12.5,45.2,0L160,210.8l105.4-105.4c12.5-12.5,32.8-12.5,45.2,0s12.5,32.7,0,45.2L205.2,256L310.6,361.4z"/>
</svg>
